<?xml version="1.0" encoding="utf-8"?>
<!-- Generator: Adobe Illustrator 24.3.0, SVG Export Plug-In . SVG Version: 6.00 Build 0)  -->
<svg version="1.1" id="Layer_1" xmlns="http://www.w3.org/2000/svg" xmlns:xlink="http://www.w3.org/1999/xlink" x="0px" y="0px"
	 viewBox="0 0 1920 876.4" style="enable-background:new 0 0 1920 876.4;" xml:space="preserve">
<style type="text/css">
	.st0{fill:#662D91;}
	.st1{fill:url(#SVGID_1_);}
</style>
<g id="Layer_1-2">
	<path class="st0" d="M1920,528.8v347.6H0v-449c10.8-3.5,21.8-6.9,33-10c91.1-49.5,197.8-87.4,289-58.9c64.9,20.3,76.5,60,160,117.8
		c33.5,23.2,174.3,120.8,285,111.3c209.9-18.1,227.1-414.2,401-427.8c174.5-13.7,304.9,373.7,483,352.6c64-7.6,68.3-104,131-106.3
		C1799.2,405.4,1844.2,410.4,1920,528.8z"/>
	<linearGradient id="SVGID_1_" gradientUnits="userSpaceOnUse" x1="532.8448" y1="864.8729" x2="1773.6958" y2="394.575">
		<stop  offset="0" style="stop-color:#BD35FF"/>
		<stop  offset="1" style="stop-color:#410074"/>
	</linearGradient>
	<path class="st1" d="M1920,320.2v558.4H0V752.1c111.8-186.5,219-163.8,458-379.5c20.2-18.2,43.1-39.7,78-46.8
		c102.1-20.6,145.6,114.4,241,122.7c122.7,10.8,161-202.9,273-198.6c130.9,5.1,157.8,299.5,274,311.2c167.5,17,263.7-579.3,420-563
		C1827,6.8,1886.3,183.9,1920,320.2z"/>
</g>
</svg>
